<svg width="100" height="100" viewBox="0 0 100 100" fill="none" xmlns="http://www.w3.org/2000/svg">
<path d="M15.886 14.9573L10.2564 21.7949L14.3162 27.7778L10.2564 36.1111L20.7265 67.9487L22.6496 73.0769L26.4957 77.9915L50.2137 91.6667L64.9573 83.3333L73.5043 77.9915L77.7778 72.6496L89.9573 36.1111L85.8974 27.7778L89.3162 22.2222L83.3333 14.1026L79.9145 13.4615L73.5043 16.2005L63.6752 5.98291H36.9658L26.4957 16.2005L19.8718 13.4615L15.886 14.9573Z" fill="#E5E5E5"/>
<path d="M36 2C35.4696 2.0001 34.961 2.21087 34.5859 2.58594L25.6055 11.5664L24.0547 10.7891C24.0534 10.7891 24.0521 10.7891 24.0508 10.7891C20.2076 8.86744 15.5492 9.62266 12.5117 12.6602C12.4427 12.7283 12.3787 12.8014 12.3203 12.8789L6.39844 20.8008C6.15062 21.1319 6.01154 21.5317 6.00035 21.9451C5.98915 22.3586 6.1064 22.7653 6.33594 23.1094L9.69141 28.1445L6.21094 35.1055C5.97546 35.5777 5.93615 36.1239 6.10156 36.625L17.6328 71.5742C17.6366 71.586 17.6405 71.5977 17.6445 71.6094C19.3955 76.6116 22.8923 80.8126 27.4922 83.4414L49.0078 95.7383C49.31 95.9109 49.652 96.0017 50 96.0017C50.348 96.0017 50.69 95.9109 50.9922 95.7383L72.5078 83.4414C77.1101 80.8125 80.6046 76.6111 82.3555 71.6094C82.3595 71.5977 82.3634 71.586 82.3672 71.5742L93.8984 36.625C94.0639 36.1239 94.0245 35.5777 93.7891 35.1055L90.3086 28.1445L93.6641 23.1094C93.8936 22.7653 94.0109 22.3586 93.9997 21.9451C93.9885 21.5317 93.8494 21.1319 93.6016 20.8008L87.6797 12.8789C87.6224 12.8029 87.5597 12.7311 87.4922 12.6641C84.4547 9.62657 79.7925 8.87135 75.9492 10.793V10.7891L74.3945 11.5664L65.4141 2.58594C65.039 2.21087 64.5304 2.0001 64 2H36ZM36.8281 6H63.1719L72.5859 15.4141C72.8827 15.7109 73.2654 15.9068 73.6797 15.9742C74.094 16.0415 74.519 15.9767 74.8945 15.7891L77.7383 14.3711C77.7383 14.3698 77.7383 14.3685 77.7383 14.3672C80.0397 13.2165 82.7903 13.6686 84.6211 15.4687L89.5508 22.0664L86.3359 26.8906C86.1403 27.184 86.0257 27.5238 86.0038 27.8758C85.9818 28.2277 86.0533 28.5791 86.2109 28.8945L89.8438 36.1562L78.5781 70.2969C77.144 74.3874 74.2866 77.8191 70.5234 79.9687L50 91.6953L29.4766 79.9687C25.715 77.819 22.8558 74.3869 21.4219 70.2969C21.4209 70.2941 21.419 70.2919 21.418 70.2891L10.1562 36.1562L13.7891 28.8945C13.9467 28.5791 14.0182 28.2277 13.9962 27.8758C13.9743 27.5238 13.8597 27.184 13.6641 26.8906L10.4492 22.0664L15.3828 15.4648C17.2136 13.6647 19.9604 13.2165 22.2617 14.3672L25.1055 15.7891C25.481 15.9767 25.906 16.0415 26.3203 15.9742C26.7346 15.9068 27.1173 15.7109 27.4141 15.4141L36.8281 6ZM50 15.9453C47.5594 15.9453 45.1172 16.5974 42.9492 17.8984C40.8155 19.1787 38.2815 19.6159 35.8398 19.1289L35.8437 19.1328L30.3945 18.0391C29.9896 17.9578 29.5694 18.004 29.1917 18.1712C28.814 18.3383 28.4973 18.6183 28.2852 18.9727L20.8359 31.3984L20.9258 31.2617C18.9036 34.0928 18.9493 37.932 21.0352 40.7148L29.5508 52.0703L29.1992 52.5976C27.0193 55.8688 27.1353 60.1813 29.4961 63.3281C29.6643 63.5507 29.8772 63.7357 30.1211 63.8711C31.2751 65.2088 32.6426 66.2762 34.0859 66.9961L48.6992 79.5195C49.0616 79.8298 49.5229 80.0003 50 80.0003C50.477 80.0003 50.9384 79.8298 51.3008 79.5195L65.9102 66.9961C67.3478 66.2781 68.7117 65.214 69.8633 63.8828C70.1144 63.7446 70.3329 63.5542 70.5039 63.3242C72.8618 60.1779 72.9811 55.8694 70.8008 52.5976L70.4492 52.0664L78.9648 40.7148C81.0538 37.9314 81.0959 34.0921 79.0742 31.2617L79.1602 31.3984L71.7148 18.9727C71.5029 18.619 71.1869 18.3395 70.81 18.1724C70.4331 18.0053 70.0137 17.9587 69.6094 18.0391L64.1562 19.1289C61.7161 19.6173 59.1852 19.1791 57.0508 17.8984C56.8925 17.8024 56.7215 17.7287 56.543 17.6797C54.4998 16.5646 52.2595 15.9453 50 15.9453ZM50 19.9414C51.7264 19.9414 53.4541 20.4051 54.9922 21.3281C55.2014 21.4535 55.4317 21.5395 55.6719 21.582C58.5171 23.0919 61.7669 23.6861 64.9414 23.0508L69.0078 22.2383L75.7305 33.4531C75.7585 33.4999 75.7885 33.5455 75.8203 33.5898C76.8386 35.0154 76.8167 36.9119 75.7656 38.3125L66.3984 50.8008C66.1506 51.1319 66.0115 51.5317 66.0003 51.9451C65.9891 52.3586 66.1064 52.7653 66.3359 53.1094L67.4727 54.8164C68.7203 56.6886 68.6548 59.1241 67.3047 60.9258C65.9808 62.6919 62.9827 64 62 64C62.201 64 61.7315 63.9347 61.0781 63.5547C60.4248 63.1747 59.5516 62.566 58.5508 61.8203C56.7744 60.4967 54.5009 58.7289 52 56.9844V55.1328L61.0312 49.7148C61.7852 49.2608 62.1574 48.3696 61.9414 47.5156L59.0547 35.9727C59.4047 35.4207 59.9367 34.9398 60.7227 34.5078L70 30L66 28H62L61.9727 28.0273C61.7727 28.0313 61.5672 28.0356 61.3672 28.1016L55.3672 30.1016C54.3772 30.4336 53.8085 31.4724 54.0625 32.4844L57.7031 47.0469L50 51.668L42.3008 47.0469L45.9414 32.4844C46.1934 31.4704 45.6248 30.4355 44.6328 30.1055L38.6328 28.1055C38.4308 28.0375 38.2293 28.0332 38.0273 28.0312L38 28H34L30 30L39.2773 34.5078C40.0633 34.9378 40.5953 35.4187 40.9453 35.9687L38.0586 47.5156C37.8466 48.3696 38.2167 49.2628 38.9727 49.7148L48 55.1328V56.9766C45.3527 58.8002 43.0422 60.5924 41.3008 61.8984C40.3221 62.6324 39.4859 63.225 38.8672 63.5859C38.2485 63.9468 37.8333 64 38 64C37.0173 64 34.019 62.6941 32.6953 60.9297C31.3441 59.1285 31.2793 56.6892 32.5273 54.8164L33.6641 53.1094C33.8936 52.7653 34.0108 52.3586 33.9997 51.9451C33.9885 51.5317 33.8494 51.1319 33.6016 50.8008L24.2344 38.3164V38.3125C23.1865 36.9116 23.1626 35.0137 24.1797 33.5898C24.2102 33.5454 24.2388 33.4998 24.2656 33.4531L30.9883 22.2383L35.0586 23.0547C38.4729 23.7357 42.0216 23.1199 45.0078 21.3281C46.5458 20.4052 48.2736 19.9414 50 19.9414ZM49.9961 60.4805C52.2325 62.061 54.3876 63.7066 56.1602 65.0273C57.2071 65.8074 58.1601 66.4845 59.0664 67.0117C59.209 67.0946 59.3518 67.1523 59.4922 67.2305L50 75.3672L40.5078 67.2305C40.6311 67.1618 40.7588 67.1114 40.8828 67.0391C41.7641 66.525 42.6779 65.8676 43.6992 65.1016C45.4351 63.7997 47.6363 62.1277 49.9961 60.4805Z" fill="black" stroke="white"/>
</svg>
